<svg xmlns="http://www.w3.org/2000/svg" width="410.148" height="290.447" viewBox="0 0 410.148 290.447">
  <g id="Group_12" data-name="Group 12" transform="translate(-515 -1465.996)">
    <g id="left-and-right-shoe-footprints" transform="translate(655.02 1490)">
      <path id="Path_1" data-name="Path 1" d="M62.569,75.066c-.406,1.975-1.754,3.818-4.234,3.223-8.927-2.112-22.914-2.744-31.2-.737-3.044.737-4.466-.59-5.609-4.229-2.849-9.042-7.347-19.944-6.378-33.91C17.315,8.125,30.234-.538,39.966.026S74.708,16.056,62.569,75.066ZM22.534,93.736a80.248,80.248,0,0,0-2.723,14.272c-1.622,14.625,1.522,24.773,15.8,26.827,12.049,1.738,19.786-7.32,21.4-21.945.974-8.837,1.059-14.477,1.059-14.477Z" transform="translate(62.886 -22)" fill="none" stroke="#fff" stroke-width="4"/>
      <path id="Path_2" data-name="Path 2" d="M26.839.025c9.732-.558,22.651,8.1,24.815,39.387.969,13.966-3.528,24.873-6.378,33.91-1.148,3.634-2.565,4.961-5.609,4.229-8.284-2.006-22.272-1.38-31.2.737-2.48.59-3.829-1.248-4.234-3.223C-7.9,16.056,17.112.589,26.839.025ZM8.727,98.412s.09,5.64,1.059,14.477c1.617,14.625,9.348,23.683,21.4,21.945,14.282-2.054,17.426-12.2,15.8-26.827a80.247,80.247,0,0,0-2.723-14.272Z" transform="translate(0 0)" fill="none" stroke="#fff" stroke-width="4"/>
    </g>
    <g id="Group_5" data-name="Group 5" transform="translate(103 -165.519)">
      <g id="Path_3" data-name="Path 3" transform="translate(412 1791.952)" fill="none">
        <path d="M58.453,75.566H296.646l-58.453,53.1H0Z" stroke="none"/>
        <path d="M 59.22593688964844 77.56578063964844 L 5.175933837890625 126.6670837402344 L 237.4204864501953 126.6670837402344 L 291.4705200195312 77.56578063964844 L 59.22593688964844 77.56578063964844 M 58.45315551757812 75.56578063964844 L 296.6464538574219 75.56578063964844 L 238.1932678222656 128.6670837402344 L 0 128.6670837402344 L 58.45315551757812 75.56578063964844 Z" stroke="none" fill="#fff"/>
      </g>
      <g id="Path_4" data-name="Path 4" transform="translate(525.501 1751.987)" fill="none">
        <path d="M58.453,75.566H296.646l-58.453,53.1H0Z" stroke="none"/>
        <path d="M 59.22593688964844 77.56578063964844 L 5.175933837890625 126.6670837402344 L 237.4204864501953 126.6670837402344 L 291.4705200195312 77.56578063964844 L 59.22593688964844 77.56578063964844 M 58.45315551757812 75.56578063964844 L 296.6464538574219 75.56578063964844 L 238.1932678222656 128.6670837402344 L 0 128.6670837402344 L 58.45315551757812 75.56578063964844 Z" stroke="none" fill="#fff"/>
      </g>
      <line id="Line_1" data-name="Line 1" y1="39.965" x2="112.702" transform="translate(468.351 1827.5)" fill="none" stroke="#fff" stroke-width="2"/>
      <line id="Line_2" data-name="Line 2" y1="39.965" x2="112.702" transform="translate(708.942 1827.5)" fill="none" stroke="#fff" stroke-width="2"/>
      <line id="Line_3" data-name="Line 3" y1="39.965" x2="112.702" transform="translate(658.586 1881.053)" fill="none" stroke="#fff" stroke-width="2"/>
      <line id="Line_4" data-name="Line 4" y1="39.965" x2="112.702" transform="translate(426.787 1881.053)" fill="none" stroke="#fff" stroke-width="2"/>
    </g>
  </g>
</svg>
