<svg xmlns="http://www.w3.org/2000/svg" viewBox="0 0 998.73 105.73"><defs><style>.a{fill:none;stroke:#000;stroke-miterlimit:10;stroke-width:2px;}</style></defs><title>logo-outline_1</title><path class="a" d="M31.45,20.64H1.21L4.59,2.84H86.38l-3.53,17.8H52.62L36.2,102.89h-21Z"/><path class="a" d="M101.88,2.84h21l-8,38.82h29.93l7.67-38.82h21l-19.95,100h-21L141.12,60H111.39L103,102.84H82Z"/><path class="a" d="M199.32,2.84h65.22l-3.38,17.64h-44.5l-4.3,21.8H249.5l-3.37,17.64H209l-5.22,25.31H249.5l-3.37,17.65H179.22Z"/><path class="a" d="M369.5,2.68h19.95l-7.22,56.63c-.76,7.21-2.45,18-3.53,24.4h.62c2.45-7.06,6.6-18.11,9.36-24.55l13.2-30.39h13.35l1.53,28.54c.31,5.53.46,18,.46,26.09H418c1.38-6.44,4-17.64,5.68-24.4L438.4,2.68h20L427.66,102.89H404.33V70.23c-.15-6.3,0-14,.31-19.34h-.46c-1.69,5.68-4.15,13-6.45,19.34L385.3,102.91H361.36Z"/><path class="a" d="M494.41,2.84h25l10.44,100H507.76l-1.23-25.16H477.37l-11.2,25.16H443Zm-10,59.08h21.35l-.61-13.2c-.62-9.82-.92-19.49-1.38-29.77h-.62c-4.29,9.82-8.28,19.64-12.73,29.62Z"/><path class="a" d="M583.87,20.64H553.64L557,2.84h81.8l-3.53,17.8H605.06l-16.41,82.25h-21Z"/><path class="a" d="M644.33,62.84C644.33,28.31,667.65,1,697.58,1c11.66,0,21,6,26.54,16L709.85,28c-3.68-5.83-7.82-8.74-13.35-8.74-17,0-30.54,20-30.54,42.2,0,15.5,6,25.17,20.87,25.17,5.84,0,11.82-3.23,16.88-7.68l8.9,13.51C706.48,98,696,104.73,682.38,104.73,659.21,104.73,644.33,89.08,644.33,62.84Z"/><path class="a" d="M746.37,2.84h21l-8,38.82h29.92l7.77-38.82h21l-20,100h-21L785.66,60H755.89l-8.44,42.81h-21Z"/><path class="a" d="M843.81,2.84h65.25l-3.37,17.64H861.15l-4.29,21.8H894l-3.37,17.64H853.48l-5.22,25.31H894l-3.37,17.65H823.71Z"/><path class="a" d="M932.35,2.84h30.54c19.64,0,34.84,7.06,34.84,26.55,0,18.1-11.36,29.15-25.78,33.91l16.26,39.59H964.89l-13.2-36.66h-11l-7.21,36.67H912.25Zm20.87,46.65c14.89,0,23.33-7.06,23.33-18,0-8.44-5.68-12-16.57-12H949.85l-5.79,30Z"/></svg>