<?xml version="1.0" encoding="utf-8"?>
<!-- Generator: Adobe Illustrator 23.0.2, SVG Export Plug-In . SVG Version: 6.00 Build 0)  -->
<svg version="1.1" id="Layer_1" xmlns="http://www.w3.org/2000/svg" xmlns:xlink="http://www.w3.org/1999/xlink" x="0px" y="0px"
	 viewBox="0 0 996.5 101.9" style="enable-background:new 0 0 996.5 101.9;" xml:space="preserve">
<title>TheWatcherLogo</title>
<path d="M30.2,17.8H0L3.4,0h81.8l-3.5,17.8H51.4L35,100H14L30.2,17.8z"/>
<path d="M100.7,0h21l-8,38.8h29.9L151.3,0h21l-19.9,100h-21l8.6-42.8h-29.7l-8.4,42.8h-21L100.7,0z"/>
<path d="M198.1,0h65.2l-3.4,17.6h-44.5l-4.3,21.8h37.1l-3.4,17.6h-37.1l-5.2,25.3h45.7l-3.4,17.7H178L198.1,0z"/>
<path d="M368.3-0.2h20L381,56.5c-0.8,7.2-2.5,18-3.5,24.4h0.6c2.5-7.1,6.6-18.1,9.4-24.5l13.2-30.4H414l1.5,28.5
	c0.3,5.5,0.5,18,0.5,26.1h0.8c1.4-6.4,4-17.6,5.7-24.4l14.7-56.3h20L426.5,100h-23.3V67.4c-0.1-6.3,0-14,0.3-19.3H403
	c-1.7,5.7-4.1,13-6.5,19.3l-12.4,32.7h-23.9L368.3-0.2z"/>
<path d="M493.2,0h25l10.4,100h-22.1l-1.2-25.2h-29.2L465,100h-23.2L493.2,0z M483.2,59.1h21.4l-0.6-13.2c-0.6-9.8-0.9-19.5-1.4-29.8
	h-0.6c-4.3,9.8-8.3,19.6-12.7,29.6L483.2,59.1z"/>
<path d="M582.7,17.8h-30.2L555.8,0h81.8l-3.5,17.8h-30.2L587.4,100h-21L582.7,17.8z"/>
<path d="M643.1,60c0-34.5,23.3-61.8,53.2-61.8c11.7,0,21,6,26.5,16l-14.3,11c-3.7-5.8-7.8-8.7-13.3-8.7c-17,0-30.5,20-30.5,42.2
	c0,15.5,6,25.2,20.9,25.2c5.8,0,11.8-3.2,16.9-7.7l8.9,13.5c-6.1,5.5-16.6,12.3-30.2,12.3C658,101.9,643.1,86.2,643.1,60z"/>
<path d="M745.2,0h21l-8,38.8h29.9L795.8,0h21l-20,100h-21l8.6-42.8h-29.8l-8.4,42.8h-21L745.2,0z"/>
<path d="M842.6,0h65.2l-3.4,17.6h-44.5l-4.3,21.8h37.1l-3.4,17.6h-37.1L847,82.4h45.7l-3.4,17.7h-66.9L842.6,0z"/>
<path d="M931.1,0h30.5c19.6,0,34.8,7.1,34.8,26.5c0,18.1-11.4,29.2-25.8,33.9L987,100h-23.3l-13.2-36.7h-11l-7.2,36.7H911L931.1,0z
	 M952,46.7c14.9,0,23.3-7.1,23.3-18c0-8.4-5.7-12-16.6-12h-10.1l-5.8,30H952z"/>
</svg>
